<?xml version="1.0" encoding="utf-8"?>
<!-- Generator: Adobe Illustrator 21.0.2, SVG Export Plug-In . SVG Version: 6.00 Build 0)  -->
<svg version="1.1" id="Layer_1" xmlns="http://www.w3.org/2000/svg" xmlns:xlink="http://www.w3.org/1999/xlink" x="0px" y="0px"
	 viewBox="0 0 504 504" style="enable-background:new 0 0 504 504;" xml:space="preserve">
<style type="text/css">
	.st0{fill:none;stroke:#000000;stroke-miterlimit:10;}
</style>
<line class="st0" x1="520.5" y1="347.5" x2="520.5" y2="347.5"/>
<g id="XMLID_1_">
	<g>
		<polygon points="343.4,338.5 343.4,336.2 343.3,336.2 161.4,336.2 161.4,488.9 84.5,488.9 84.5,14 161.4,14 161.4,251.4 
			377.3,251.4 420.3,252.6 420.3,489.4 420.3,490 343.4,488.9 		"/>
	</g>
	<g>
		<line class="st0" x1="84.5" y1="14" x2="84.5" y2="488.9"/>
		<line class="st0" x1="161.4" y1="14" x2="161.4" y2="251.4"/>
		<line class="st0" x1="161.4" y1="336.2" x2="161.4" y2="488.9"/>
		<line class="st0" x1="161.4" y1="251.4" x2="377.3" y2="251.4"/>
		<polyline class="st0" points="161.4,336.2 343.3,336.2 343.4,336.2 		"/>
		<polyline class="st0" points="343.3,336.2 343.4,338.5 343.5,340.8 		"/>
		<polyline class="st0" points="343.4,336.2 343.4,338.5 343.4,488.9 		"/>
		<polyline class="st0" points="420.3,489.4 420.3,252.6 420.3,252 		"/>
		<line class="st0" x1="377.3" y1="251.4" x2="420.3" y2="252.6"/>
		<line class="st0" x1="84.5" y1="14" x2="161.4" y2="14"/>
		<line class="st0" x1="84.5" y1="488.9" x2="161.4" y2="488.9"/>
		<line class="st0" x1="343.4" y1="488.9" x2="420.3" y2="490"/>
	</g>
</g>
</svg>
